<svg width="10" height="15" viewBox="0 0 51 50" fill="none" xmlns="http://www.w3.org/2000/svg">
<path d="M25.7412 0C11.9539 0 0.741236 11.2126 0.741211 25C0.741199 38.7874 11.9538 50 25.7412 50C39.5286 50 50.7412 38.7874 50.7412 25C50.7412 11.2126 39.5286 0 25.7412 0ZM25.7412 3.32185C37.7271 3.32185 47.4193 13.0141 47.4194 25C47.4194 36.9859 37.7271 46.6658 25.7412 46.6658C13.7553 46.6658 4.07535 36.9859 4.07536 25C4.07539 13.0141 13.7553 3.32185 25.7412 3.32185Z" fill="#000"/>
<path d="M25.7118 6.6541C25.4929 6.65807 25.2768 6.70522 25.0761 6.7927C24.8754 6.88019 24.6938 7.00624 24.5419 7.16391C24.3899 7.32159 24.2705 7.50776 24.1905 7.7116C24.1105 7.91543 24.0714 8.133 24.0755 8.35194V25.0227C24.077 25.4627 24.2525 25.8842 24.5637 26.1953C24.8748 26.5065 25.2964 26.6821 25.7364 26.6836H39.073C39.5152 26.6836 39.9392 26.508 40.2518 26.1953C40.5645 25.8827 40.7401 25.4587 40.7401 25.0166C40.7401 24.5744 40.5645 24.1504 40.2518 23.8378C39.9392 23.5251 39.5152 23.3495 39.073 23.3495H27.4096V8.35194C27.4138 8.12782 27.3728 7.90507 27.289 7.69718C27.2051 7.48929 27.0802 7.3005 26.9217 7.142C26.7632 6.98349 26.5744 6.85866 26.3665 6.77483C26.1586 6.69099 25.9359 6.64989 25.7118 6.6541V6.6541Z" fill="#000"/>
</svg>
