<svg width="170" height="51" viewBox="0 0 170 51" fill="none" xmlns="http://www.w3.org/2000/svg">
<path fill-rule="evenodd" clip-rule="evenodd" d="M3.15 5.5H43.15V45.5H3.15V5.5V5.5ZM21.04 34.96H10.15V16.05H21.04V19.33H14.16V23.49H20.56V26.77H14.16V31.65H21.04V34.96V34.96ZM36.15 29.71C36.15 31.42 35.53 32.76 34.3 33.75C33.08 34.73 31.36 35.22 29.17 35.22C27.16 35.22 25.37 34.84 23.82 34.08V30.36C25.1 30.93 26.18 31.33 27.06 31.56C27.94 31.8 28.75 31.91 29.48 31.91C30.37 31.91 31.04 31.74 31.51 31.41C31.98 31.07 32.21 30.57 32.21 29.91C32.21 29.54 32.11 29.2 31.91 28.92C31.7 28.63 31.39 28.35 30.99 28.08C30.59 27.81 29.77 27.39 28.54 26.8C27.39 26.26 26.52 25.74 25.94 25.24C25.36 24.74 24.9 24.15 24.56 23.49C24.21 22.83 24.04 22.05 24.04 21.16C24.04 19.49 24.6 18.17 25.74 17.22C26.87 16.26 28.44 15.78 30.44 15.78C31.42 15.78 32.36 15.9 33.26 16.13C34.15 16.36 35.08 16.69 36.05 17.11L34.76 20.23C33.75 19.82 32.92 19.53 32.26 19.37C31.6 19.2 30.95 19.12 30.31 19.12C29.55 19.12 28.97 19.29 28.56 19.65C28.16 20 27.95 20.46 27.95 21.03C27.95 21.39 28.04 21.7 28.2 21.96C28.37 22.22 28.63 22.47 28.98 22.72C29.34 22.97 30.19 23.41 31.53 24.04C33.3 24.89 34.51 25.74 35.16 26.59C35.82 27.44 36.15 28.48 36.15 29.71V29.71Z" fill="#9B0A0A"/>
<path fill-rule="evenodd" clip-rule="evenodd" d="M66.57 37.63H53.17V14.35H66.57V18.39H58.1V23.51H65.98V27.56H58.1V33.55H66.57V37.63ZM69.47 30.88V26.9H78.02V30.88H69.47ZM95.67 31.17C95.67 33.28 94.9 34.93 93.39 36.14C91.88 37.35 89.78 37.96 87.08 37.96C84.6 37.96 82.4 37.49 80.49 36.55V31.97C82.06 32.67 83.39 33.16 84.48 33.45C85.56 33.74 86.56 33.88 87.46 33.88C88.55 33.88 89.38 33.67 89.95 33.26C90.54 32.85 90.82 32.23 90.82 31.41C90.82 30.96 90.7 30.55 90.44 30.2C90.19 29.84 89.81 29.5 89.32 29.17C88.82 28.84 87.82 28.31 86.3 27.59C84.88 26.92 83.81 26.28 83.1 25.66C82.39 25.05 81.82 24.33 81.4 23.51C80.97 22.7 80.76 21.74 80.76 20.65C80.76 18.59 81.46 16.97 82.85 15.79C84.25 14.61 86.18 14.03 88.64 14.03C89.85 14.03 91 14.17 92.11 14.45C93.2 14.74 94.35 15.14 95.55 15.67L93.96 19.5C92.72 18.99 91.69 18.64 90.88 18.44C90.06 18.24 89.27 18.13 88.48 18.13C87.55 18.13 86.83 18.35 86.33 18.79C85.83 19.22 85.58 19.79 85.58 20.49C85.58 20.93 85.68 21.31 85.88 21.63C86.09 21.95 86.41 22.26 86.85 22.57C87.29 22.87 88.33 23.42 89.98 24.2C92.16 25.24 93.64 26.28 94.45 27.33C95.26 28.38 95.67 29.65 95.67 31.17V31.17ZM118.94 37.63H114.03V27.59H104.81V37.63H99.88V14.35H104.81V23.48H114.03V14.35H118.94V37.63ZM145.95 25.96C145.95 29.82 145 32.78 143.09 34.85C141.17 36.92 138.44 37.96 134.87 37.96C131.31 37.96 128.57 36.92 126.66 34.85C124.74 32.78 123.79 29.81 123.79 25.94C123.79 22.06 124.75 19.1 126.67 17.06C128.58 15.01 131.33 13.99 134.9 13.99C138.48 13.99 141.22 15.02 143.11 17.08C145.01 19.14 145.95 22.1 145.95 25.96V25.96ZM128.96 25.96C128.96 28.57 129.46 30.52 130.44 31.84C131.43 33.16 132.91 33.82 134.87 33.82C138.81 33.82 140.78 31.2 140.78 25.96C140.78 20.72 138.82 18.1 134.9 18.1C132.94 18.1 131.46 18.76 130.46 20.08C129.47 21.4 128.96 23.37 128.96 25.96ZM155.7 25.31H157.33C158.85 25.31 159.99 25.01 160.74 24.4C161.49 23.81 161.87 22.93 161.87 21.78C161.87 20.63 161.55 19.77 160.92 19.22C160.29 18.67 159.3 18.39 157.95 18.39H155.7V25.31ZM166.85 21.61C166.85 24.12 166.07 26.03 164.5 27.36C162.94 28.69 160.71 29.35 157.82 29.35H155.7V37.63H150.77V14.35H158.2C161.03 14.35 163.18 14.96 164.65 16.17C166.12 17.39 166.85 19.2 166.85 21.61V21.61Z" fill="black"/>
</svg>
